# xmcd
#
# Track frame offsets:
#	150
#	17560
#	28380
#	42115
#	58940
#	72502
#	86675
#	99082
#	109860
#	126485
#	139080
#	151452
#	164207
#	180707
#	192500
#	201890
#
# Disc length: 2965 seconds
#
# Revision: 0
# Processed by: cddbd v1.4PL0 Copyright (c) Steve Scherf et al.
# Submitted via: dBpowerAMP V4.0
#
DISCID=ef0b9310
DTITLE=charley pride - my latest and greatest
DYEAR=1900
DGENRE=
TTITLE0=charley pride-just for the love of it.mp3
TTITLE1=charley pride-walk on by.mp3
TTITLE2=charley pride-sea of hearbreak.mp3
TTITLE3=charley pride-ive been there.mp3
TTITLE4=charley pride-burning down the time.mp3
TTITLE5=charley pride-for today.mp3
TTITLE6=charley pride-i came straight to you. mp3
TTITLE7=charley pride-is anybody going to san antone.mp3
TTITLE8=charley pride-the hunger.mp3
TTITLE9=charley pride-lone star lonely.mp3
TTITLE10=charley pride-crystal chandeliers.mp3
TTITLE11=charley pride-hope you're feeling me.mp3
TTITLE12=charley pride-roll on mississippi.mp3
TTITLE13=charley pride-lovesick blues.mp3
TTITLE14=charley pride-kiss an angel good morning.mp3
TTITLE15=charley pride-you're so good when you're bad.mp3
EXTD=
EXTT0=
EXTT1=
EXTT2=
EXTT3=
EXTT4=
EXTT5=
EXTT6=
EXTT7=
EXTT8=
EXTT9=
EXTT10=
EXTT11=
EXTT12=
EXTT13=
EXTT14=
EXTT15=
PLAYORDER=
